Coordinates
version=1
nRows=6
nColumns=36
inDegrees=yes

Units are S.I. units (second, meters, Newtons, ...)
If the header above contains a line with 'inDegrees', this indicates whether rotational values are in degrees (yes) or radians (no).

endheader
time	pelvis_tilt	pelvis_list	pelvis_rotation	pelvis_tx	pelvis_ty	pelvis_tz	hip_flexion_r	hip_adduction_r	hip_rotation_r	knee_angle_r	knee_angle_r_beta	ankle_angle_r	subtalar_angle_r	mtp_angle_r	hip_flexion_l	hip_adduction_l	hip_rotation_l	knee_angle_l	knee_angle_l_beta	ankle_angle_l	subtalar_angle_l	mtp_angle_l	lumbar_extension	lumbar_bending	lumbar_rotation	arm_flex_r	arm_add_r	arm_rot_r	elbow_flex_r	pro_sup_r	arm_flex_l	arm_add_l	arm_rot_l	elbow_flex_l	pro_sup_l
      0.00000000	      1.88478394	      1.46297326	     -0.47694395	      0.27162554	      1.25172500	     -0.58498406	     -5.04657618	     -2.93647963	      2.52953980	      4.40673780	      0.07691208	      6.98639074	     -7.51927452	     -6.87215347	     -7.21334500	      0.46211835	     -0.03281752	      2.84383256	      0.04963424	     12.90310448	     -5.30644721	     -6.87215347	     -2.53025644	     -2.16025041	      4.84577063	      1.97229150	    -10.82727607	     16.41500347	     21.89945001	     78.49878859	      0.44619354	    -13.80443709	     20.82539348	     23.80130276	     78.98561081
      0.01666670	      1.78647520	      1.56417165	     -1.53334373	      0.26139090	      1.25096688	     -0.58117164	     -5.09185146	     -3.10642991	      2.62494980	      3.33542848	      0.05821421	      7.44534939	     -7.27170898	     -6.87833333	     -7.26329756	      0.77204921	     -1.61036436	      1.43730760	      0.02508575	     13.03325947	     -5.20895738	     -6.87833333	     -2.68989273	     -2.28119299	      6.30781806	      2.77726494	    -10.81562664	     16.80349983	     21.30372079	     79.37314449	      1.04068942	    -13.77237272	     20.82993321	     23.66000820	     79.59538446
      0.03333330	      2.08552171	      1.58395530	     -1.55044161	      0.26021466	      1.25206156	     -0.58152840	     -5.15965273	     -2.99522231	      2.20868175	      3.54439202	      0.06186131	      7.86695298	     -7.31113636	     -7.21515683	     -7.22894826	      0.88869360	     -2.40197864	      1.65765668	      0.02893157	     13.06304594	     -5.22536866	     -7.21515683	     -3.42626492	     -2.42952108	      6.77168263	      3.00078009	    -10.52632763	     13.18105812	     20.78311308	     93.35233479	      2.43267951	    -13.30735034	     18.29814886	     22.06683199	     91.57393166
      0.05000000	      2.08093229	      1.60786017	     -1.48404936	      0.26637863	      1.25160086	     -0.58526838	     -5.03377364	     -3.10590842	      1.67618277	      3.58982258	      0.06265422	      7.95565483	     -7.58547513	     -7.21562356	     -7.19447453	      1.03652276	     -2.92013956	      1.62441364	      0.02835137	     13.08509097	     -5.47699514	     -7.21562356	     -3.53979219	     -2.40820285	      6.73101361	      3.12511757	    -10.50857211	     13.20043430	     20.81152249	     93.36283504	      2.60838262	    -13.12765478	     18.32507480	     22.12915000	     91.58527931
      0.06666670	      2.28311811	      1.73205865	     -1.49905546	      0.26461451	      1.25201756	     -0.58546257	     -4.87300041	     -3.24424775	      1.14221323	      4.13763174	      0.07221530	      8.18605043	     -7.71375324	     -7.28355037	     -7.26892491	      1.25504765	     -3.23428255	      1.80781816	      0.03155238	     13.01734653	     -5.49480978	     -7.28355037	     -3.86990842	     -2.60939177	      6.84540689	      3.47286957	    -10.60688929	     15.07088819	     20.40682962	     91.08418146	      3.30383425	    -12.99029255	     19.87301152	     21.17289963	     89.60230442
      0.08333330	      2.43144316	      1.76334917	     -1.45275889	      0.26304866	      1.25235542	     -0.58547343	     -4.79939967	     -3.24638351	      0.92978294	      4.45012750	      0.07766938	      8.33265922	     -7.54742340	     -7.39278006	     -7.41092423	      1.32465741	     -3.49353196	      1.80430526	      0.03149107	     12.83448506	     -5.59527566	     -7.39278006	     -4.12746290	     -2.63233793	      7.19936948	      3.25071370	    -10.77849489	     14.88246815	     20.97452179	     92.94621249	      3.86329734	    -13.00713855	     21.23447755	     21.27589183	     92.89684358
